HIERARCHY
ROOT Hips
{
	OFFSET 0.000000 0.000000 0.000000 
	CHANNELS 6 Xposition Yposition Zposition Zrotation Yrotation Xrotation
	JOINT LeftUpLeg
	{
		OFFSET 1.363060 -1.794630 0.839290 
		CHANNELS 3 Zrotation Yrotation Xrotation
		JOINT LeftLeg
		{
			OFFSET 2.448110 -6.726130 0.000000 
			CHANNELS 3 Zrotation Yrotation Xrotation
			JOINT LeftFoot
			{
				OFFSET 2.562200 -7.039590 0.000000 
				CHANNELS 3 Zrotation Yrotation Xrotation
				JOINT LeftToeBase
				{
					OFFSET 0.157640 -0.433110 2.322550 
					CHANNELS 3 Zrotation Yrotation Xrotation
					End Site
					{
						OFFSET 0.000000 0.000000 0.000000 
					}
				}
			}
		}
	}
	JOINT RightUpLeg
	{
		OFFSET -1.305520 -1.794630 0.839290 
		CHANNELS 3 Zrotation Yrotation Xrotation
		JOINT RightLeg
		{
			OFFSET -2.542530 -6.985550 0.000000 
			CHANNELS 3 Zrotation Yrotation Xrotation
			JOINT RightFoot
			{
				OFFSET -2.568260 -7.056230 0.000000 
				CHANNELS 3 Zrotation Yrotation Xrotation
				JOINT RightToeBase
				{
					OFFSET -0.164730 -0.452590 2.363150 
					CHANNELS 3 Zrotation Yrotation Xrotation
					End Site
					{
						OFFSET 0.000000 0.000000 0.000000 
					}
				}
			}
		}
	}
	JOINT Spine
	{
		OFFSET 0.028270 2.035590 -0.193380 
		CHANNELS 3 Zrotation Yrotation Xrotation
		JOINT Spine1
		{
			OFFSET 0.056720 2.048850 -0.042750 
			CHANNELS 3 Zrotation Yrotation Xrotation
			JOINT Neck1
			{
				OFFSET -0.054170 1.746240 0.172020 
				CHANNELS 3 Zrotation Yrotation Xrotation
				JOINT Head
				{
					OFFSET 0.104070 1.761360 -0.123970 
					CHANNELS 3 Zrotation Yrotation Xrotation
					End Site
					{
						OFFSET 0.000000 0.000000 0.000000 
					}
				}
			}
			JOINT LeftArm
			{
				OFFSET 3.362410 1.200890 -0.311210 
				CHANNELS 3 Zrotation Yrotation Xrotation
				JOINT LeftForeArm
				{
					OFFSET 4.983000 -0.000000 -0.000000 
					CHANNELS 3 Zrotation Yrotation Xrotation
					JOINT LeftHand
					{
						OFFSET 3.483560 -0.000000 -0.000000 
						CHANNELS 3 Zrotation Yrotation Xrotation
						JOINT LeftHandIndex1
						{
							OFFSET 0.715260 -0.000000 -0.000000 
							CHANNELS 3 Zrotation Yrotation Xrotation
							End Site
							{
								OFFSET 0.000000 0.000000 0.000000 
							}
						}
					}
				}
			}
			JOINT RightArm
			{
				OFFSET -3.136600 1.374050 -0.404650 
				CHANNELS 3 Zrotation Yrotation Xrotation
				JOINT RightForeArm
				{
					OFFSET -5.241900 -0.000000 -0.000000 
					CHANNELS 3 Zrotation Yrotation Xrotation
					JOINT RightHand
					{
						OFFSET -3.444170 -0.000000 -0.000000 
						CHANNELS 3 Zrotation Yrotation Xrotation
						JOINT RightHandIndex1
						{
							OFFSET -0.622530 -0.000000 -0.000000 
							CHANNELS 3 Zrotation Yrotation Xrotation
							End Site
							{
								OFFSET 0.000000 0.000000 0.000000 
							}
						}
					}
				}
			}
		}
	}
}
MOTION
Frames: 13
Frame Time: 0.041667
-39.302365 17.429209 -5.454685 -104.780558 86.888750 -107.798557 -20.212279 7.098960 3.692686 0.886974 5.334878 16.133347 -0.603142 6.902017 -12.128384 0.148000 -2.479500 -6.832800 28.052261 3.509885 -2.493513 -2.663346 -10.667376 31.249729 -0.362928 -8.223970 -24.530306 -0.211100 -2.958200 8.162500 1.236652 -0.090034 -0.891764 -2.226241 -0.043505 1.706539 6.347995 -0.106140 4.833829 -0.048100 0.060300 1.946900 -78.912927 1.739544 26.603383 9.465538 -19.328357 -2.303147 -0.923313 -0.651195 -17.376472 -7.125000 0.000000 0.000000 79.189052 -1.489089 20.696066 -10.669669 21.282626 -2.671482 0.853978 -0.027925 2.281462 7.125000 0.000000 0.000000 
-39.304210 17.428492 -5.454583 -104.373578 86.801798 -107.406499 -20.116812 7.054134 3.676756 0.895711 5.356310 16.198422 -0.603326 6.918678 -12.172136 0.144300 -2.448200 -6.746100 28.157906 3.500526 -2.470371 -2.655806 -10.657998 31.216032 -0.356334 -8.249589 -24.521001 -0.211200 -2.958700 8.163900 1.244110 -0.094125 -0.888812 -2.240352 -0.044104 1.699384 6.368227 -0.106342 4.822602 -0.031200 0.060100 1.930900 -78.905697 1.738749 26.633456 9.470566 -19.333221 -2.303959 -0.923584 -0.648873 -17.410891 -7.125000 0.000000 0.000000 79.160789 -1.455531 20.690941 -10.641068 21.249475 -2.663270 0.856343 -0.025284 2.281775 7.125000 0.000000 0.000000 
-39.305747 17.429721 -5.453968 -104.471516 86.803518 -107.494620 -20.117807 7.048233 3.659610 0.895695 5.358414 16.203224 -0.596393 6.885909 -12.183167 0.142400 -2.432200 -6.701600 28.158969 3.507641 -2.485729 -2.655047 -10.657895 31.213735 -0.365047 -8.220315 -24.541945 -0.215500 -2.988600 8.247000 1.246862 -0.113464 -0.890560 -2.221143 -0.054418 1.690614 6.373689 -0.093054 4.819083 -0.026000 0.066500 1.929000 -78.918018 1.737053 26.576174 9.470817 -19.332718 -2.304414 -0.921901 -0.650937 -17.385435 -7.125000 0.000000 0.000000 79.121124 -1.471972 20.761769 -10.657567 21.270148 -2.668117 0.856569 -0.026041 2.244025 7.125000 0.000000 0.000000 
-39.305849 17.429209 -5.453865 -104.616663 86.804680 -107.650544 -20.115694 7.065494 3.655519 0.896821 5.361956 16.212623 -0.600345 6.898256 -12.158235 0.146100 -2.463500 -6.788400 28.161361 3.518659 -2.467479 -2.654487 -10.656616 31.211011 -0.353363 -8.277661 -24.541030 -0.211500 -2.960900 8.169800 1.247910 -0.117683 -0.883802 -2.214549 -0.056450 1.719037 6.360436 -0.096803 4.817747 -0.037700 0.064200 1.931600 -78.919614 1.700909 26.572890 9.461094 -19.320299 -2.301285 -0.922522 -0.648915 -17.376313 -7.125000 0.000000 0.000000 79.096216 -1.450123 20.760273 -10.659346 21.271854 -2.668912 0.856930 -0.024515 2.256434 7.125000 0.000000 0.000000 
-39.306669 17.429414 -5.453660 -104.635298 86.797042 -107.670030 -20.104516 7.069961 3.653657 0.896166 5.359733 16.205986 -0.601043 6.898137 -12.147368 0.146300 -2.465000 -6.792500 28.174448 3.529115 -2.470249 -2.654930 -10.658127 31.214503 -0.347301 -8.309991 -24.544635 -0.209400 -2.946200 8.129100 1.249807 -0.125141 -0.880717 -2.207238 -0.060117 1.730611 6.361657 -0.092209 4.815256 -0.037600 0.066400 1.930500 -78.922629 1.682001 26.556348 9.457698 -19.315734 -2.300458 -0.922716 -0.648514 -17.370387 -7.125000 0.000000 0.000000 79.069729 -1.439778 20.779597 -10.661524 21.274731 -2.669795 0.857581 -0.023996 2.247851 7.125000 0.000000 0.000000 
-39.307387 17.429721 -5.453353 -104.708868 86.799778 -107.742466 -20.105455 7.078127 3.653312 0.894618 5.355199 16.192573 -0.601832 6.897079 -12.132140 0.147100 -2.471600 -6.810800 28.174173 3.539371 -2.475967 -2.656409 -10.660968 31.222851 -0.344090 -8.329925 -24.551254 -0.208300 -2.938400 8.107300 1.250851 -0.132381 -0.877636 -2.197232 -0.063936 1.744583 6.363314 -0.087523 4.816491 -0.037300 0.068800 1.932400 -78.927090 1.662738 26.537483 9.454915 -19.312100 -2.299910 -0.922903 -0.648540 -17.363938 -7.125000 0.000000 0.000000 79.044373 -1.430838 20.799711 -10.665497 21.279691 -2.671252 0.858096 -0.023801 2.236893 7.125000 0.000000 0.000000 
-39.308104 17.429824 -5.453045 -104.741354 86.799275 -107.775005 -20.102459 7.084436 3.649452 0.893830 5.353113 16.186102 -0.602290 6.895298 -12.120093 0.147900 -2.478000 -6.828800 28.177982 3.548408 -2.479227 -2.656992 -10.662534 31.226992 -0.342884 -8.340193 -24.557430 -0.208200 -2.938100 8.106500 1.251636 -0.137587 -0.875137 -2.190771 -0.066653 1.755142 6.365100 -0.085429 4.817544 -0.037100 0.070000 1.932300 -78.929098 1.647535 26.524297 9.452757 -19.309610 -2.299628 -0.923269 -0.648873 -17.361556 -7.125000 0.000000 0.000000 79.023782 -1.426213 20.819633 -10.668982 21.284503 -2.672617 0.858863 -0.023251 2.223828 7.125000 0.000000 0.000000 
-39.309026 17.430234 -5.452738 -104.746655 86.798899 -107.777702 -20.100275 7.087110 3.644519 0.893256 5.351625 16.181351 -0.602316 6.892940 -12.113233 0.148100 -2.480300 -6.835100 28.180324 3.553835 -2.487141 -2.657589 -10.664039 31.230765 -0.341096 -8.350175 -24.559225 -0.207800 -2.935100 8.098300 1.252049 -0.141893 -0.873730 -2.186279 -0.068835 1.760784 6.368292 -0.082755 4.820038 -0.036000 0.071500 1.932800 -78.930262 1.637098 26.511867 9.452731 -19.309548 -2.300098 -0.923623 -0.649646 -17.362524 -7.125000 0.000000 0.000000 79.006362 -1.425679 20.841410 -10.673722 21.290929 -2.674349 0.859731 -0.022692 2.205595 7.125000 0.000000 0.000000 
-39.310051 17.430439 -5.452431 -104.744868 86.794256 -107.774550 -20.093715 7.085665 3.637448 0.893372 5.351969 16.182174 -0.602271 6.891824 -12.109893 0.148400 -2.482200 -6.840300 28.186868 3.555760 -2.494092 -2.657802 -10.664985 31.232708 -0.341527 -8.349271 -24.561722 -0.208600 -2.940400 8.112900 1.252895 -0.146524 -0.873091 -2.182845 -0.071314 1.761551 6.370125 -0.078645 4.819775 -0.035800 0.073600 1.930700 -78.932236 1.631429 26.501794 9.454437 -19.311860 -2.301015 -0.923894 -0.650254 -17.365239 -7.125000 0.000000 0.000000 78.990325 -1.429103 20.867167 -10.680679 21.300158 -2.676893 0.860638 -0.021826 2.182151 7.125000 0.000000 0.000000 
-39.311076 17.430439 -5.452123 -104.738869 86.791754 -107.768567 -20.090243 7.084730 3.634635 0.893221 5.351354 16.180334 -0.602822 6.893626 -12.107286 0.148400 -2.482300 -6.840600 28.188892 3.552561 -2.500315 -2.658357 -10.666234 31.236035 -0.344339 -8.335806 -24.562234 -0.210100 -2.951000 8.142200 1.252932 -0.150114 -0.873363 -2.184112 -0.073126 1.757883 6.369000 -0.070620 4.819709 -0.038900 0.077700 1.930500 -78.932017 1.629321 26.495381 9.457181 -19.315044 -2.302009 -0.924005 -0.650496 -17.369932 -7.125000 0.000000 0.000000 78.980562 -1.429348 20.876177 -10.682718 21.302614 -2.677646 0.861165 -0.021546 2.171097 7.125000 0.000000 0.000000 
-39.312408 17.430336 -5.451918 -104.736869 86.790822 -107.768570 -20.089024 7.081754 3.632448 0.893072 5.350670 16.178097 -0.603651 6.897520 -12.105368 0.148300 -2.481700 -6.838800 28.189078 3.549578 -2.504617 -2.659068 -10.667568 31.239576 -0.350193 -8.309177 -24.564879 -0.212900 -2.970500 8.196700 1.253147 -0.153857 -0.873572 -2.183846 -0.075118 1.753928 6.367627 -0.059636 4.817774 -0.042200 0.083000 1.929100 -78.933237 1.627019 26.489718 9.459966 -19.318373 -2.303054 -0.924151 -0.650247 -17.374377 -7.125000 0.000000 0.000000 78.971988 -1.423539 20.870516 -10.680645 21.299347 -2.677020 0.861180 -0.021864 2.173522 7.125000 0.000000 0.000000 
-39.313433 17.430541 -5.451918 -104.754791 86.796169 -107.787568 -20.095742 7.081472 3.634346 0.892339 5.348746 16.172404 -0.604607 6.901547 -12.103161 0.147900 -2.478600 -6.830200 28.180357 3.544024 -2.512942 -2.660152 -10.669181 31.244801 -0.349046 -8.310335 -24.558162 -0.212200 -2.965600 8.183000 1.252732 -0.157796 -0.873877 -2.183098 -0.077231 1.749841 6.367722 -0.046900 4.817598 -0.044400 0.089400 1.929800 -78.935616 1.624786 26.482453 9.462763 -19.321535 -2.304062 -0.924384 -0.649491 -17.378087 -7.125000 0.000000 0.000000 78.965777 -1.413468 20.852143 -10.675170 21.291240 -2.675096 0.860628 -0.022665 2.190847 7.125000 0.000000 0.000000 
-39.314458 17.430644 -5.451816 -104.736802 86.799868 -107.773478 -20.099489 7.082098 3.636963 0.891823 5.347082 16.167614 -0.605194 6.904118 -12.101446 0.147300 -2.473300 -6.815600 28.174863 3.538652 -2.519150 -2.661214 -10.670708 31.249459 -0.347946 -8.311093 -24.551341 -0.211700 -2.962400 8.174000 1.252725 -0.161292 -0.873513 -2.181294 -0.079105 1.747843 6.367031 -0.036033 4.817030 -0.046800 0.094800 1.930400 -78.940792 1.620472 26.472905 9.465689 -19.324533 -2.304907 -0.924567 -0.648256 -17.378834 -7.125000 0.000000 0.000000 78.959582 -1.399532 20.828366 -10.668894 21.281853 -2.672920 0.859913 -0.023736 2.215122 7.125000 0.000000 0.000000 
